Coordinates
version=1
nRows=42
nColumns=38
inDegrees=no

Units are S.I. units (second, meters, Newtons, ...)
If the header above contains a line with 'inDegrees', this indicates whether rotational values are in degrees (yes) or radians (no).

endheader
time	pelvis_tilt	pelvis_list	pelvis_rotation	pelvis_tx	pelvis_ty	pelvis_tz	hip_flexion_r	hip_adduction_r	hip_rotation_r	knee_angle_r	ankle_angle_r	subtalar_angle_r	mtp_angle_r	hip_flexion_l	hip_adduction_l	hip_rotation_l	knee_angle_l	ankle_angle_l	subtalar_angle_l	mtp_angle_l	lumbar_extension	lumbar_bending	lumbar_rotation	arm_flex_r	arm_add_r	arm_rot_r	elbow_flex_r	pro_sup_r	wrist_flex_r	wrist_dev_r	arm_flex_l	arm_add_l	arm_rot_l	elbow_flex_l	pro_sup_l	wrist_flex_l	wrist_dev_l
15	-0.666969	1.54673	2.31522	0.735388	1.39973	0.951638	0.52319	-0.148445	-0.0343284	0.93709	0.105551	0	0	0.218142	0.107929	-0.160062	0.168746	-0.0361004	0	0	-0.00269033	-0.0347561	0.145413	0.547152	-0.495292	0.182901	1.1374	1.5708	0	0	0.756694	0.158814	0.251798	0.859906	1.5708	0	0
15.01	-0.607031	1.54668	2.24939	0.736138	1.3968	0.951531	0.517301	-0.143449	-0.026716	0.953284	0.110772	0	0	0.220642	0.105654	-0.164354	0.16434	-0.0407307	0	0	0.000849336	-0.0327097	0.150085	0.543305	-0.493687	0.179161	1.13929	1.5708	0	0	0.757419	0.152612	0.259746	0.85949	1.5708	0	0
15.02	-0.559005	1.54599	2.19494	0.73701	1.39385	0.951397	0.5118	-0.138368	-0.0178183	0.96944	0.11597	0	0	0.223468	0.103659	-0.168452	0.160178	-0.0458541	0	0	0.00471584	-0.0312477	0.155132	0.539709	-0.492766	0.178074	1.14113	1.5708	0	0	0.758552	0.145373	0.27004	0.85867	1.5708	0	0
15.03	-0.529589	1.54513	2.15917	0.737903	1.39088	0.951245	0.506016	-0.133716	-0.00911173	0.985498	0.12228	0	0	0.225992	0.10199	-0.17263	0.155793	-0.0509916	0	0	0.0083586	-0.030173	0.159967	0.536688	-0.491777	0.177544	1.14276	1.5708	0	0	0.759954	0.137633	0.280867	0.857599	1.5708	0	0
15.04	-0.506151	1.54449	2.12935	0.73854	1.38789	0.951023	0.499812	-0.129261	-0.00161436	1.00135	0.129954	0	0	0.228553	0.100138	-0.177411	0.151922	-0.0554826	0	0	0.0118204	-0.0287362	0.164628	0.534212	-0.490939	0.177808	1.14427	1.5708	0	0	0.761495	0.129644	0.291943	0.856122	1.5708	0	0
15.05	-0.475727	1.54413	2.09302	0.73987	1.38481	0.950831	0.493134	-0.124062	0.00633585	1.01671	0.135592	0	0	0.23128	0.0978663	-0.181703	0.148643	-0.059877	0	0	0.0148535	-0.0276401	0.168443	0.531651	-0.489581	0.177694	1.14588	1.5708	0	0	0.76364	0.121328	0.303064	0.854268	1.5708	0	0
15.06	-0.461925	1.54368	2.07342	0.740918	1.38175	0.950624	0.486006	-0.119607	0.0129203	1.03135	0.141271	0	0	0.233974	0.0958205	-0.186134	0.145692	-0.0639918	0	0	0.0177176	-0.0267428	0.171988	0.529314	-0.487859	0.177411	1.14784	1.5708	0	0	0.765892	0.112848	0.314151	0.851712	1.5708	0	0
15.07	-0.460916	1.54324	2.06686	0.74141	1.37868	0.950386	0.478306	-0.115734	0.0181545	1.04494	0.147301	0	0	0.236783	0.0938506	-0.190488	0.143212	-0.0680424	0	0	0.0203827	-0.0258342	0.175268	0.527168	-0.486134	0.177672	1.15022	1.5708	0	0	0.767661	0.104273	0.324419	0.849635	1.5708	0	0
15.08	-0.439748	1.54314	2.0407	0.743133	1.37544	0.950231	0.470106	-0.111114	0.0237881	1.05732	0.15094	0	0	0.239901	0.0913925	-0.193623	0.141345	-0.0724535	0	0	0.0226846	-0.0249119	0.177669	0.524695	-0.484116	0.178141	1.15278	1.5708	0	0	0.769582	0.0957687	0.33365	0.847399	1.5708	0	0
15.09	-0.415873	1.5433	2.01191	0.744278	1.37226	0.950022	0.461417	-0.106436	0.0282943	1.0685	0.155251	0	0	0.243027	0.0885639	-0.19653	0.139746	-0.0767812	0	0	0.0248057	-0.0233402	0.179885	0.522726	-0.481775	0.178637	1.15557	1.5708	0	0	0.771229	0.087591	0.342034	0.845011	1.5708	0	0
15.1	-0.430383	1.5424	2.0245	0.746481	1.36892	0.949637	0.450076	-0.0878365	0.0353615	1.07898	0.149773	0	0	0.24738	0.0873593	-0.197149	0.139215	-0.0820955	0	0	0.0274225	-0.0260766	0.181096	0.52009	-0.479571	0.178119	1.1582	1.5708	0	0	0.773665	0.0783041	0.348258	0.842695	1.5708	0	0
15.11	-0.427124	1.5436	2.01602	0.747752	1.36554	0.949494	0.439457	-0.0829869	0.0397975	1.08716	0.155311	0	0	0.249198	0.0843894	-0.201171	0.137413	-0.0863818	0	0	0.0279538	-0.0244563	0.184015	0.51768	-0.477485	0.17772	1.16194	1.5708	0	0	0.776051	0.070386	0.357343	0.840429	1.5708	0	0
15.12	-0.406188	1.54461	1.99069	0.749007	1.36212	0.949323	0.428904	-0.0783599	0.0430234	1.09367	0.160271	0	0	0.251678	0.0812282	-0.204627	0.135899	-0.0906134	0	0	0.0289199	-0.0223473	0.185674	0.51607	-0.474638	0.178158	1.16496	1.5708	0	0	0.776959	0.0632322	0.362567	0.839754	1.5708	0	0
15.13	-0.366676	1.5457	1.94683	0.750291	1.3586	0.949096	0.418233	-0.0732884	0.0463001	1.09844	0.164233	0	0	0.254494	0.0775955	-0.20783	0.134495	-0.0949987	0	0	0.0298721	-0.0196694	0.187419	0.51472	-0.471624	0.178149	1.16821	1.5708	0	0	0.777536	0.0563071	0.368403	0.839788	1.5708	0	0
15.14	-0.306451	1.54612	1.88256	0.751653	1.35491	0.948793	0.408108	-0.0677894	0.0499423	1.10119	0.167461	0	0	0.258343	0.0734762	-0.210686	0.133493	-0.0993516	0	0	0.0313681	-0.0168755	0.189006	0.5133	-0.46854	0.177837	1.17146	1.5708	0	0	0.777963	0.0496038	0.373675	0.840257	1.5708	0	0
15.15	-0.246953	1.54595	1.81939	0.75306	1.35115	0.948472	0.398163	-0.0626178	0.053085	1.10158	0.169753	0	0	0.262812	0.0694069	-0.213868	0.132789	-0.103576	0	0	0.0333239	-0.0143698	0.190464	0.511718	-0.465089	0.176967	1.17466	1.5708	0	0	0.778116	0.0434243	0.377666	0.841102	1.5708	0	0
15.16	-0.190039	1.54627	1.75874	0.754527	1.34731	0.948232	0.387003	-0.057253	0.0560299	1.09885	0.17213	0	0	0.266096	0.0653347	-0.216781	0.130807	-0.108302	0	0	0.0344462	-0.011763	0.192202	0.51011	-0.461429	0.175586	1.17828	1.5708	0	0	0.778281	0.0373591	0.382129	0.842264	1.5708	0	0
15.17	-0.130707	1.54588	1.69626	0.756001	1.34341	0.947957	0.376366	-0.0525295	0.0571041	1.09378	0.173753	0	0	0.270043	0.0615084	-0.218901	0.128595	-0.112678	0	0	0.0362668	-0.00922756	0.193319	0.508432	-0.458032	0.175695	1.18158	1.5708	0	0	0.778007	0.0317108	0.385063	0.843478	1.5708	0	0
15.18	-0.0382195	1.54502	1.60095	0.757525	1.33935	0.94759	0.366006	-0.0470553	0.0569297	1.08611	0.174129	0	0	0.275244	0.0566657	-0.220477	0.127496	-0.117033	0	0	0.0381801	-0.00573101	0.194563	0.506641	-0.454923	0.175022	1.18571	1.5708	0	0	0.778201	0.0264682	0.389842	0.844295	1.5708	0	0
15.19	0.0726694	1.54284	1.48729	0.759093	1.33509	0.947055	0.356828	-0.0406591	0.056489	1.07613	0.173881	0	0	0.282902	0.0508269	-0.221855	0.128457	-0.120701	0	0	0.0409676	-0.00134346	0.196022	0.505384	-0.451905	0.173694	1.18953	1.5708	0	0	0.778365	0.0222262	0.393659	0.844725	1.5708	0	0
15.2	0.157658	1.54138	1.39933	0.76072	1.33073	0.946665	0.346107	-0.0346243	0.0562464	1.06334	0.175457	0	0	0.287851	0.0455704	-0.223319	0.126058	-0.125747	0	0	0.0423375	0.00255104	0.19817	0.503914	-0.448764	0.170884	1.19407	1.5708	0	0	0.779298	0.0179582	0.398731	0.844542	1.5708	0	0
15.21	0.223457	1.53968	1.33056	0.762432	1.32624	0.946283	0.335356	-0.0290246	0.0556045	1.0486	0.180785	0	0	0.292373	0.0405722	-0.225021	0.12241	-0.131198	0	0	0.0435626	0.00607005	0.200287	0.502497	-0.445547	0.168439	1.1988	1.5708	0	0	0.779989	0.0137892	0.402651	0.844839	1.5708	0	0
15.22	0.275755	1.53764	1.27501	0.764189	1.32162	0.945862	0.324927	-0.0237189	0.0548868	1.03157	0.186986	0	0	0.29738	0.0355517	-0.227273	0.119009	-0.135855	0	0	0.0448991	0.00948385	0.202694	0.501263	-0.442362	0.166249	1.20362	1.5708	0	0	0.780151	0.0100426	0.405153	0.845309	1.5708	0	0
15.23	0.321161	1.53555	1.2259	0.765988	1.31688	0.945442	0.314177	-0.0184006	0.0541752	1.01086	0.194042	0	0	0.302365	0.0303186	-0.230251	0.115576	-0.139297	0	0	0.0458584	0.0131168	0.20545	0.500737	-0.439365	0.164843	1.20902	1.5708	0	0	0.779911	0.00654254	0.406163	0.846174	1.5708	0	0
15.24	0.356269	1.53335	1.18666	0.767836	1.31202	0.945018	0.303273	-0.0130028	0.0533313	0.985945	0.204071	0	0	0.307509	0.0250312	-0.234078	0.112124	-0.141626	0	0	0.0466197	0.016789	0.208425	0.50067	-0.436783	0.164797	1.21461	1.5708	0	0	0.779644	0.00269918	0.40615	0.847234	1.5708	0	0
15.25	0.380233	1.53086	1.15804	0.769755	1.30701	0.944591	0.292912	-0.00752993	0.0524628	0.957461	0.218467	0	0	0.31293	0.0196651	-0.238182	0.108441	-0.143125	0	0	0.0474802	0.0203858	0.211793	0.500839	-0.434124	0.165083	1.21971	1.5708	0	0	0.779318	-0.00137003	0.406091	0.848547	1.5708	0	0
15.26	0.399232	1.52808	1.13386	0.771759	1.30181	0.944149	0.283511	-0.00179859	0.0516097	0.927833	0.236299	0	0	0.318619	0.0140078	-0.242579	0.104532	-0.143507	0	0	0.0482374	0.0240789	0.215485	0.501663	-0.431404	0.165905	1.22435	1.5708	0	0	0.77904	-0.00546433	0.406037	0.850221	1.5708	0	0
15.27	0.414968	1.52492	1.11226	0.77383	1.2964	0.943672	0.275202	0.00448243	0.0514384	0.89895	0.254521	0	0	0.324506	0.00801907	-0.247125	0.100034	-0.142889	0	0	0.0488501	0.0281561	0.219549	0.503976	-0.428669	0.167748	1.22841	1.5708	0	0	0.779043	-0.0097782	0.405444	0.851798	1.5708	0	0
15.28	0.427313	1.52157	1.09368	0.775923	1.29077	0.943237	0.268456	0.0111011	0.0521051	0.872207	0.270443	0	0	0.330194	0.00191896	-0.251556	0.0947715	-0.141083	0	0	0.0491396	0.0324946	0.223635	0.507279	-0.425849	0.171181	1.23191	1.5708	0	0	0.779305	-0.0142992	0.404303	0.852779	1.5708	0	0
15.29	0.442008	1.51817	1.07252	0.778018	1.28495	0.942918	0.264049	0.018145	0.0537844	0.84834	0.282147	0	0	0.33525	-0.00434721	-0.255475	0.0885741	-0.137851	0	0	0.0488555	0.0372666	0.227646	0.511234	-0.422547	0.175193	1.2351	1.5708	0	0	0.779753	-0.018832	0.402659	0.853174	1.5708	0	0
15.3	0.467595	1.51426	1.04011	0.780162	1.27896	0.942731	0.262445	0.0267621	0.0574057	0.82787	0.289896	0	0	0.339705	-0.0114052	-0.258247	0.0810797	-0.132644	0	0	0.0481036	0.0432373	0.231901	0.515713	-0.419765	0.17969	1.23783	1.5708	0	0	0.780432	-0.023239	0.400817	0.853099	1.5708	0	0
15.31	0.504193	1.51025	0.997214	0.782289	1.27281	0.942718	0.26246	0.0364937	0.0619199	0.810243	0.294384	0	0	0.343202	-0.0187467	-0.258698	0.0725805	-0.124916	0	0	0.0463744	0.0499753	0.235499	0.520478	-0.416502	0.183953	1.24014	1.5708	0	0	0.781375	-0.0275058	0.398605	0.852523	1.5708	0	0
15.32	0.535437	1.50562	0.960685	0.784331	1.26661	0.942812	0.263619	0.0464021	0.0668502	0.79338	0.296549	0	0	0.346534	-0.0255581	-0.256598	0.062843	-0.114979	0	0	0.0450434	0.0569409	0.237948	0.525201	-0.412622	0.188624	1.24206	1.5708	0	0	0.782154	-0.0318319	0.396312	0.85187	1.5708	0	0
15.33	0.560345	1.50072	0.932048	0.786217	1.26035	0.942982	0.265579	0.0555376	0.0706184	0.777257	0.297042	0	0	0.349513	-0.0313923	-0.252107	0.0515703	-0.105171	0	0	0.0439599	0.0638126	0.238777	0.530106	-0.408661	0.194116	1.24379	1.5708	0	0	0.783138	-0.0363135	0.39443	0.850852	1.5708	0	0
15.34	0.577854	1.49583	0.91235	0.787917	1.25406	0.94316	0.268608	0.0631462	0.0718938	0.762533	0.296492	0	0	0.352064	-0.036034	-0.246075	0.038887	-0.0954039	0	0	0.0429901	0.0702841	0.238083	0.535642	-0.404603	0.199257	1.24527	1.5708	0	0	0.784735	-0.0406995	0.393101	0.84943	1.5708	0	0
15.35	0.596838	1.49094	0.893559	0.789401	1.24778	0.943327	0.272047	0.0694045	0.0687133	0.748713	0.295498	0	0	0.353639	-0.0397091	-0.235203	0.024388	-0.0850402	0	0	0.0419961	0.0767527	0.235047	0.541403	-0.400283	0.203948	1.24665	1.5708	0	0	0.787042	-0.0453231	0.392879	0.847528	1.5708	0	0
15.36	0.596612	1.48589	0.895026	0.790807	1.24147	0.943342	0.27777	0.0736308	0.0636081	0.73716	0.295032	0	0	0.357148	-0.0420799	-0.225961	0.0115694	-0.072953	0	0	0.0423043	0.081643	0.23166	0.545708	-0.395755	0.206773	1.24936	1.5708	0	0	0.790168	-0.0500506	0.394695	0.845037	1.5708	0	0
15.37	0.588437	1.48043	0.905424	0.792113	1.23515	0.943191	0.285179	0.0768031	0.0570997	0.727122	0.294333	0	0	0.362559	-0.0438485	-0.217491	0.000611522	-0.0598789	0	0	0.0435719	0.0859339	0.22756	0.549408	-0.391311	0.208923	1.25269	1.5708	0	0	0.794004	-0.0547885	0.397724	0.84191	1.5708	0	0
15.38	0.572221	1.47509	0.924834	0.79333	1.22879	0.94295	0.293836	0.0786441	0.0492388	0.718527	0.293379	0	0	0.368816	-0.044661	-0.209826	0	-0.0473394	0	0	0.0452495	0.0891073	0.222821	0.553101	-0.38742	0.211328	1.25623	1.5708	0	0	0.798709	-0.0595385	0.401819	0.838669	1.5708	0	0
15.39	0.555543	1.47029	0.945019	0.794479	1.22242	0.942674	0.303067	0.0797249	0.04102	0.711671	0.292117	0	0	0.374893	-0.0450066	-0.202404	0	-0.0358842	0	0	0.0464746	0.0915037	0.217933	0.556802	-0.383721	0.213165	1.25939	1.5708	0	0	0.804133	-0.0641371	0.405877	0.835733	1.5708	0	0
15.4	0.552832	1.46704	0.94906	0.795185	1.21582	0.942656	0.31205	0.073816	0.0277047	0.705986	0.295496	0	0	0.390756	-0.0481738	-0.195413	0	-0.0224999	0	0	0.0445102	0.0952169	0.214286	0.561264	-0.379297	0.216272	1.26197	1.5708	0	0	0.809759	-0.0678232	0.410951	0.833171	1.5708	0	0
15.41	0.539553	1.46338	0.966324	0.796243	1.20947	0.942424	0.321575	0.0749189	0.0210484	0.701927	0.292951	0	0	0.399914	-0.0487602	-0.188829	0	-0.0111812	0	0	0.044437	0.0966349	0.209287	0.565049	-0.376027	0.218327	1.26402	1.5708	0	0	0.816399	-0.0724559	0.416585	0.830421	1.5708	0	0
